<svg width="64" height="64" viewBox="0 0 64 64" fill="none" xmlns="http://www.w3.org/2000/svg">
<g clip-path="url(#clip0_134_611)">
<path d="M44 42.6674C43.8127 42.6663 43.6277 42.6273 43.456 42.5527C42.7706 42.246 26.6666 34.8834 26.6666 19.9047V7.04868C26.6666 6.48601 27.0213 5.98468 27.552 5.79268L43.552 0.0780144C43.8416 -0.0260048 44.1583 -0.0260048 44.448 0.0780144L60.448 5.79268C60.7071 5.88512 60.9313 6.05545 61.0898 6.28031C61.2483 6.50518 61.3333 6.77357 61.3333 7.04868V19.9047C61.3333 34.8834 45.2293 42.246 44.544 42.5527C44.3722 42.6273 44.1872 42.6663 44 42.6674ZM29.3333 7.98735V19.9047C29.3333 31.7234 41.28 38.47 44 39.8487C46.7173 38.462 58.6666 31.694 58.6666 19.9047V7.98735L44 2.75001L29.3333 7.98735Z" fill="#0A9695"/>
<path d="M45.3334 29.3327H38.6667C38.3131 29.3327 37.9739 29.1922 37.7239 28.9422C37.4738 28.6921 37.3334 28.353 37.3334 27.9993C37.3334 27.6457 37.4738 27.3066 37.7239 27.0565C37.9739 26.8065 38.3131 26.666 38.6667 26.666H45.3334C46.0406 26.666 46.7189 26.3851 47.219 25.885C47.7191 25.3849 48 24.7066 48 23.9993C48 23.2921 47.7191 22.6138 47.219 22.1137C46.7189 21.6136 46.0406 21.3327 45.3334 21.3327H42.6667C39.7254 21.3327 37.3334 18.9407 37.3334 15.9993C37.3334 13.058 39.7254 10.666 42.6667 10.666H49.3334C49.687 10.666 50.0261 10.8065 50.2762 11.0565C50.5262 11.3066 50.6667 11.6457 50.6667 11.9993C50.6667 12.353 50.5262 12.6921 50.2762 12.9422C50.0261 13.1922 49.687 13.3327 49.3334 13.3327H42.6667C41.9595 13.3327 41.2812 13.6136 40.7811 14.1137C40.281 14.6138 40 15.2921 40 15.9993C40 16.7066 40.281 17.3849 40.7811 17.885C41.2812 18.3851 41.9595 18.666 42.6667 18.666H45.3334C48.2747 18.666 50.6667 21.058 50.6667 23.9993C50.6667 26.9407 48.2747 29.3327 45.3334 29.3327Z" fill="#0A9695"/>
<path d="M44 33.3327C43.6464 33.3327 43.3072 33.1922 43.0572 32.9422C42.8071 32.6921 42.6667 32.353 42.6667 31.9993V27.9993C42.6667 27.6457 42.8071 27.3066 43.0572 27.0565C43.3072 26.8065 43.6464 26.666 44 26.666C44.3536 26.666 44.6928 26.8065 44.9428 27.0565C45.1929 27.3066 45.3333 27.6457 45.3333 27.9993V31.9993C45.3333 32.353 45.1929 32.6921 44.9428 32.9422C44.6928 33.1922 44.3536 33.3327 44 33.3327ZM44 13.3327C43.6464 13.3327 43.3072 13.1922 43.0572 12.9422C42.8071 12.6921 42.6667 12.353 42.6667 11.9993V7.99935C42.6667 7.64573 42.8071 7.30659 43.0572 7.05654C43.3072 6.80649 43.6464 6.66602 44 6.66602C44.3536 6.66602 44.6928 6.80649 44.9428 7.05654C45.1929 7.30659 45.3333 7.64573 45.3333 7.99935V11.9993C45.3333 12.353 45.1929 12.6921 44.9428 12.9422C44.6928 13.1922 44.3536 13.3327 44 13.3327ZM9.33333 58.666H1.33333C0.979711 58.666 0.640573 58.5255 0.390524 58.2755C0.140476 58.0254 0 57.6863 0 57.3327V33.3327C0 32.9791 0.140476 32.6399 0.390524 32.3899C0.640573 32.1398 0.979711 31.9993 1.33333 31.9993C10.4027 31.9993 15.1947 35.0553 15.3947 35.186C15.6275 35.3382 15.8069 35.5593 15.9078 35.8185C16.0087 36.0776 16.026 36.3618 15.9573 36.6314L10.624 57.6607C10.552 57.9483 10.3858 58.2035 10.1519 58.3857C9.91796 58.5679 9.62982 58.6666 9.33333 58.666ZM2.66667 55.9994H8.296L13.1173 36.986C11.6187 36.266 8.08267 34.89 2.66667 34.69V55.9994Z" fill="#0A9695"/>
<path d="M34.6666 63.9993C28.3733 63.9993 16.2053 58.7087 9.51196 55.5514C9.34724 55.4809 9.19841 55.378 9.07436 55.2487C8.9503 55.1194 8.85357 54.9665 8.78994 54.799C8.72631 54.6316 8.69708 54.453 8.704 54.274C8.71092 54.0949 8.75384 53.9192 8.83021 53.7571C8.90658 53.595 9.01483 53.45 9.14849 53.3307C9.28215 53.2114 9.43848 53.1203 9.60815 53.0628C9.77781 53.0052 9.95733 52.9825 10.136 52.9959C10.3146 53.0092 10.4888 53.0585 10.648 53.1407C15.8746 55.6047 28.6773 61.3327 34.6666 61.3327C41.1546 61.3327 56.44 53.714 60.8373 51.45C60.144 50.5434 58.712 49.3327 56 49.3327C53.5386 49.3327 50.4186 50.3167 47.4 51.2713C44.192 52.282 40.872 53.3327 38 53.3327C32.496 53.3327 25.184 50.698 24.8773 50.586C24.7127 50.5261 24.5615 50.4344 24.4324 50.3161C24.3032 50.1978 24.1986 50.0552 24.1246 49.8965C24.0506 49.7378 24.0085 49.566 24.0009 49.391C23.9932 49.216 24.0201 49.0413 24.08 48.8767C24.1398 48.7121 24.2316 48.5609 24.3499 48.4318C24.4682 48.3026 24.6108 48.198 24.7695 48.124C24.9282 48.05 25.1 48.0079 25.2749 48.0002C25.4499 47.9926 25.6247 48.0195 25.7893 48.0794C25.8586 48.106 32.968 50.666 38 50.666C40.4613 50.666 43.5813 49.682 46.6 48.7274C49.808 47.7167 53.128 46.666 56 46.666C62.224 46.666 63.864 51.378 63.9333 51.578C64.0323 51.8771 64.0227 52.2015 63.9061 52.4941C63.7895 52.7868 63.5735 53.0289 63.296 53.178C62.4666 53.6153 42.9066 63.9993 34.6666 63.9993Z" fill="#0A9695"/>
<path d="M44 52.2402C43.6464 52.2402 43.3073 52.0997 43.0572 51.8496C42.8072 51.5996 42.6667 51.2604 42.6667 50.9068V49.5735C42.6731 48.6777 42.3746 47.8063 41.8202 47.1026C41.2658 46.399 40.4885 45.9048 39.616 45.7015L13.8747 39.4855C13.7043 39.4443 13.5437 39.37 13.4021 39.2668C13.2604 39.1636 13.1405 39.0335 13.0491 38.8839C12.9577 38.7344 12.8967 38.5683 12.8695 38.3951C12.8424 38.222 12.8495 38.0452 12.8907 37.8748C12.9318 37.7045 13.0061 37.5439 13.1094 37.4022C13.2126 37.2605 13.3427 37.1406 13.4922 37.0492C13.6418 36.9579 13.8079 36.8968 13.981 36.8697C14.1542 36.8425 14.331 36.8497 14.5014 36.8908L40.232 43.1042C41.6895 43.4449 42.9881 44.2707 43.9149 45.446C44.8417 46.6214 45.3419 48.0767 45.3334 49.5735V50.9068C45.3334 51.2604 45.1929 51.5996 44.9428 51.8496C44.6928 52.0997 44.3537 52.2402 44 52.2402Z" fill="#0A9695"/>
</g>
<defs>
<clipPath id="clip0_134_611">
<rect width="64" height="64" fill="white"/>
</clipPath>
</defs>
</svg>
