<svg width="64" height="64" viewBox="0 0 64 64" fill="none" xmlns="http://www.w3.org/2000/svg">
<path fill-rule="evenodd" clip-rule="evenodd" d="M13.3332 9.33334C13.5629 9.33347 13.7887 9.39296 13.9887 9.50602C14.1886 9.61909 14.356 9.7819 14.4745 9.97867L16.8185 13.872L21.2425 14.896C21.4667 14.9478 21.6736 15.0567 21.8432 15.2121C22.0128 15.3674 22.1393 15.5641 22.2105 15.7828C22.2816 16.0016 22.2949 16.235 22.2491 16.4605C22.2034 16.6859 22.1 16.8957 21.9492 17.0693L18.9705 20.4987L19.3625 25.024C19.3821 25.2529 19.3421 25.483 19.2466 25.6919C19.1511 25.9008 19.0032 26.0815 18.8172 26.2164C18.6313 26.3514 18.4137 26.436 18.1855 26.4621C17.9572 26.4882 17.7261 26.4548 17.5145 26.3653L13.3332 24.5947L9.15188 26.3653C8.94018 26.4555 8.70877 26.4893 8.48014 26.4635C8.25151 26.4377 8.03344 26.3532 7.84714 26.2181C7.66085 26.0831 7.51267 25.9022 7.417 25.6929C7.32134 25.4837 7.28145 25.2532 7.30121 25.024L7.69588 20.4987L4.71721 17.0667C4.56639 16.893 4.46307 16.6832 4.41729 16.4578C4.37152 16.2324 4.38484 15.9989 4.45597 15.7802C4.5271 15.5614 4.65362 15.3648 4.82322 15.2094C4.99282 15.054 5.19975 14.9451 5.42388 14.8933L9.85054 13.8693L12.1892 9.976C12.3083 9.77934 12.4762 9.61681 12.6767 9.5042C12.8771 9.3916 13.1033 9.33274 13.3332 9.33334ZM13.3332 13.2533L11.8399 15.7307C11.7478 15.8835 11.6261 16.0163 11.4818 16.1212C11.3375 16.226 11.1736 16.3009 10.9999 16.3413L8.18388 16.9947L10.0772 19.176C10.1946 19.3109 10.2836 19.4679 10.339 19.6379C10.3945 19.8079 10.4152 19.9872 10.3999 20.1653L10.1519 23.0453L12.8132 21.92C12.9777 21.8503 13.1546 21.8144 13.3332 21.8144C13.5119 21.8144 13.6887 21.8503 13.8532 21.92L16.5145 23.048L16.2665 20.168C16.2505 19.9896 16.2706 19.8099 16.3256 19.6394C16.3806 19.469 16.4693 19.3114 16.5865 19.176L18.4799 16.9947L15.6665 16.3413C15.4921 16.3009 15.3276 16.2258 15.1828 16.1204C15.038 16.015 14.916 15.8816 14.8239 15.728L13.3332 13.2533ZM31.9999 4C32.2296 4.00014 32.4554 4.05962 32.6553 4.17269C32.8553 4.28575 33.0227 4.44856 33.1412 4.64534L35.4852 8.53867L39.9092 9.56267C40.1333 9.61444 40.3403 9.72332 40.5099 9.87872C40.6795 10.0341 40.806 10.2307 40.8771 10.4495C40.9482 10.6683 40.9616 10.9017 40.9158 11.1271C40.87 11.3526 40.7667 11.5623 40.6159 11.736L37.6372 15.1653L38.0292 19.6907C38.0487 19.9196 38.0088 20.1496 37.9133 20.3585C37.8177 20.5675 37.6698 20.7482 37.4839 20.8831C37.298 21.018 37.0804 21.1027 36.8521 21.1287C36.6239 21.1548 36.3928 21.1215 36.1812 21.032L31.9999 19.2613L27.8185 21.032C27.6068 21.1221 27.3754 21.1559 27.1468 21.1301C26.9182 21.1043 26.7001 21.0198 26.5138 20.8848C26.3275 20.7498 26.1793 20.5688 26.0837 20.3596C25.988 20.1503 25.9481 19.9199 25.9679 19.6907L26.3625 15.1653L23.3839 11.7333C23.2331 11.5597 23.1297 11.3499 23.084 11.1245C23.0382 10.899 23.0515 10.6656 23.1226 10.4468C23.1938 10.2281 23.3203 10.0314 23.4899 9.87605C23.6595 9.72065 23.8664 9.61178 24.0905 9.56L28.5172 8.536L30.8559 4.64267C30.975 4.44601 31.1429 4.28348 31.3433 4.17087C31.5438 4.05826 31.77 3.9994 31.9999 4ZM31.9999 7.92L30.5065 10.3973C30.4145 10.5501 30.2927 10.6829 30.1484 10.7878C30.0042 10.8927 29.8403 10.9676 29.6665 11.008L26.8505 11.6613L28.7439 13.8427C28.8612 13.9775 28.9503 14.1346 29.0057 14.3046C29.0611 14.4745 29.0818 14.6539 29.0665 14.832L28.8159 17.712L31.4799 16.5867C31.6444 16.517 31.8212 16.4811 31.9999 16.4811C32.1785 16.4811 32.3554 16.517 32.5199 16.5867L35.1812 17.7147L34.9332 14.8347C34.9172 14.6563 34.9373 14.4765 34.9923 14.3061C35.0472 14.1357 35.136 13.9781 35.2532 13.8427L37.1465 11.6613L34.3332 11.008C34.1588 10.9676 33.9942 10.8925 33.8495 10.7871C33.7047 10.6817 33.5826 10.5483 33.4905 10.3947L31.9972 7.92H31.9999ZM50.6665 9.33334C50.8963 9.33347 51.122 9.39296 51.322 9.50602C51.522 9.61909 51.6893 9.7819 51.8079 9.97867L54.1519 13.872L58.5759 14.896C58.8 14.9478 59.0069 15.0567 59.1765 15.2121C59.3461 15.3674 59.4727 15.5641 59.5438 15.7828C59.6149 16.0016 59.6282 16.235 59.5825 16.4605C59.5367 16.6859 59.4334 16.8957 59.2825 17.0693L56.3039 20.4987L56.6959 25.024C56.7154 25.2529 56.6755 25.483 56.5799 25.6919C56.4844 25.9008 56.3365 26.0815 56.1506 26.2164C55.9647 26.3514 55.747 26.436 55.5188 26.4621C55.2906 26.4882 55.0594 26.4548 54.8479 26.3653L50.6665 24.5947L46.4852 26.3653C46.2735 26.4555 46.0421 26.4893 45.8135 26.4635C45.5848 26.4377 45.3668 26.3532 45.1805 26.2181C44.9942 26.0831 44.846 25.9022 44.7503 25.6929C44.6547 25.4837 44.6148 25.2532 44.6345 25.024L45.0292 20.4987L42.0505 17.0667C41.8997 16.893 41.7964 16.6832 41.7506 16.4578C41.7048 16.2324 41.7182 15.9989 41.7893 15.7802C41.8604 15.5614 41.9869 15.3648 42.1566 15.2094C42.3262 15.054 42.5331 14.9451 42.7572 14.8933L47.1839 13.8693L49.5225 9.976C49.6416 9.77934 49.8096 9.61681 50.01 9.5042C50.2105 9.3916 50.4366 9.33274 50.6665 9.33334ZM50.6665 13.2533L49.1732 15.7307C49.0812 15.8835 48.9594 16.0163 48.8151 16.1212C48.6708 16.226 48.507 16.3009 48.3332 16.3413L45.5172 16.9947L47.4105 19.176C47.5279 19.3109 47.6169 19.4679 47.6724 19.6379C47.7278 19.8079 47.7485 19.9872 47.7332 20.1653L47.4825 23.0453L50.1465 21.92C50.3111 21.8503 50.4879 21.8144 50.6665 21.8144C50.8452 21.8144 51.022 21.8503 51.1865 21.92L53.8479 23.048L53.5999 20.168C53.5839 19.9896 53.6039 19.8099 53.6589 19.6394C53.7139 19.469 53.8026 19.3114 53.9199 19.176L55.8132 16.9947L52.9999 16.3413C52.8254 16.3009 52.6609 16.2258 52.5161 16.1204C52.3714 16.015 52.2493 15.8816 52.1572 15.728L50.6665 13.2533Z" fill="#0A9695"/>
<path d="M22.4347 57.9997H21C18.7947 57.9997 17 56.2051 17 53.9997V38.9277C17 36.7224 18.7947 34.9277 21 34.9277H22.4347C24.64 34.9277 26.4347 36.7224 26.4347 38.9277V53.9997C26.4347 56.2051 24.64 57.9997 22.4347 57.9997ZM21 37.5944C20.6464 37.5944 20.3072 37.7349 20.0572 37.9849C19.8071 38.235 19.6667 38.5741 19.6667 38.9277V53.9997C19.6667 54.3534 19.8071 54.6925 20.0572 54.9425C20.3072 55.1926 20.6464 55.3331 21 55.3331H22.4347C22.7883 55.3331 23.1274 55.1926 23.3775 54.9425C23.6275 54.6925 23.768 54.3534 23.768 53.9997V38.9277C23.768 38.5741 23.6275 38.235 23.3775 37.9849C23.1274 37.7349 22.7883 37.5944 22.4347 37.5944H21Z" fill="#0A9695"/>
<path d="M41.0756 58H38.7396C28.8276 58 24.4623 54.6693 24.2783 54.528C24 54.3098 23.8198 53.99 23.7773 53.6389C23.7347 53.2879 23.8334 52.9343 24.0516 52.656C24.2698 52.3777 24.5896 52.1975 24.9407 52.155C25.2917 52.1125 25.6453 52.2111 25.9236 52.4293C25.953 52.4507 29.849 55.3333 38.7396 55.3333H41.0756C41.9682 55.3351 42.8323 55.0192 43.5134 54.4422C44.1944 53.8652 44.648 53.0648 44.793 52.184L46.2836 43.256C46.3734 42.7163 46.3446 42.1635 46.1994 41.6361C46.0541 41.1086 45.7958 40.6191 45.4423 40.2015C45.0889 39.7838 44.6488 39.4481 44.1526 39.2176C43.6565 38.9871 43.1161 38.8674 42.569 38.8667H34.9183C34.6772 38.8669 34.4407 38.8014 34.234 38.6774C34.0273 38.5534 33.8582 38.3755 33.745 38.1627C33.6287 37.9514 33.573 37.7122 33.5838 37.4714C33.5946 37.2305 33.6716 36.9973 33.8063 36.7973C33.8116 36.7893 34.857 35.1333 34.857 32.4347C34.8543 29.6907 33.7183 28.6667 33.001 28.6667C32.9066 28.6586 32.8116 28.6686 32.721 28.696C32.7156 28.712 32.4223 29.0933 32.4223 31.16C32.4223 36.3653 26.0063 39.8427 25.7316 39.9893C25.4194 40.1559 25.0537 40.1916 24.7152 40.0886C24.3766 39.9855 24.0928 39.7522 23.9263 39.44C23.7597 39.1278 23.724 38.7621 23.8271 38.4236C23.9301 38.085 24.1634 37.8012 24.4756 37.6347C25.945 36.848 29.753 34.1467 29.753 31.1573C29.753 29.3547 29.753 26 33.001 26C35.177 26 37.521 28.0133 37.521 32.4347C37.521 33.96 37.2543 35.2373 36.9476 36.2027H42.5636C44.4596 36.2027 46.249 37.032 47.473 38.48C48.697 39.9253 49.2223 41.8267 48.9103 43.696L47.4196 52.624C47.1747 54.1283 46.4014 55.496 45.2386 56.4814C44.0758 57.4668 42.5998 58.0052 41.0756 58Z" fill="#0A9695"/>
</svg>
