<svg width="24" height="25" viewBox="0 0 24 25" fill="none" xmlns="http://www.w3.org/2000/svg">
<path d="M21 5H3C2.60218 5 2.22064 5.15804 1.93934 5.43934C1.65804 5.72064 1.5 6.10218 1.5 6.5V18.5C1.5 18.8978 1.65804 19.2794 1.93934 19.5607C2.22064 19.842 2.60218 20 3 20H21C21.3978 20 21.7794 19.842 22.0607 19.5607C22.342 19.2794 22.5 18.8978 22.5 18.5V6.5C22.5 6.10218 22.342 5.72064 22.0607 5.43934C21.7794 5.15804 21.3978 5 21 5ZM19.35 6.5L12 11.585L4.65 6.5H19.35ZM3 18.5V7.1825L11.5725 13.115C11.698 13.2021 11.8472 13.2488 12 13.2488C12.1528 13.2488 12.302 13.2021 12.4275 13.115L21 7.1825V18.5H3Z" fill="white"/>
</svg>
