<svg width="32" height="32" viewBox="0 0 32 32" fill="none" xmlns="http://www.w3.org/2000/svg">
<g clip-path="url(#clip0_141_424)">
<path d="M16 32C7.17733 32 0 24.8227 0 16C0 7.17733 7.17733 0 16 0C24.8227 0 32 7.17733 32 16C32 24.8227 24.8227 32 16 32ZM16 1.33333C7.91333 1.33333 1.33333 7.91333 1.33333 16C1.33333 24.0867 7.91333 30.6667 16 30.6667C24.0867 30.6667 30.6667 24.0867 30.6667 16C30.6667 7.91333 24.0867 1.33333 16 1.33333Z" fill="#0A9695"/>
<path d="M9.33268 14.6673C7.86202 14.6673 6.66602 13.4713 6.66602 12.0007C6.66602 10.53 7.86202 9.33398 9.33268 9.33398C10.8033 9.33398 11.9993 10.53 11.9993 12.0007C11.9993 13.4713 10.8033 14.6673 9.33268 14.6673ZM9.33268 10.6673C8.59802 10.6673 7.99935 11.266 7.99935 12.0007C7.99935 12.7353 8.59802 13.334 9.33268 13.334C10.0673 13.334 10.666 12.7353 10.666 12.0007C10.666 11.266 10.0673 10.6673 9.33268 10.6673ZM22.666 14.6673C21.1953 14.6673 19.9993 13.4713 19.9993 12.0007C19.9993 10.53 21.1953 9.33398 22.666 9.33398C24.1367 9.33398 25.3327 10.53 25.3327 12.0007C25.3327 13.4713 24.1367 14.6673 22.666 14.6673ZM22.666 10.6673C21.9313 10.6673 21.3327 11.266 21.3327 12.0007C21.3327 12.7353 21.9313 13.334 22.666 13.334C23.4007 13.334 23.9993 12.7353 23.9993 12.0007C23.9993 11.266 23.4007 10.6673 22.666 10.6673ZM15.9993 26.6673C14.598 26.6712 13.2098 26.397 11.9151 25.8608C10.6204 25.3246 9.44492 24.5369 8.45668 23.5433C8.33524 23.4176 8.26805 23.2492 8.26957 23.0744C8.27109 22.8996 8.3412 22.7324 8.4648 22.6088C8.58841 22.4852 8.75562 22.4151 8.93041 22.4135C9.10521 22.412 9.27361 22.4792 9.39935 22.6007C11.1633 24.3633 13.506 25.334 15.9993 25.334C18.4927 25.334 20.8354 24.3633 22.5993 22.6007C22.7251 22.4792 22.8935 22.412 23.0683 22.4135C23.2431 22.4151 23.4103 22.4852 23.5339 22.6088C23.6575 22.7324 23.7276 22.8996 23.7291 23.0744C23.7306 23.2492 23.6635 23.4176 23.542 23.5433C22.5538 24.5369 21.3783 25.3246 20.0836 25.8608C18.7889 26.397 17.4007 26.6712 15.9993 26.6673Z" fill="#0A9695"/>
</g>
<defs>
<clipPath id="clip0_141_424">
<rect width="32" height="32" fill="white"/>
</clipPath>
</defs>
</svg>
