<svg width="32" height="32" viewBox="0 0 32 32" fill="none" xmlns="http://www.w3.org/2000/svg">
<g clip-path="url(#clip0_141_407)">
<path d="M24.6733 30H9.292C8.86198 30.0004 8.44937 29.8301 8.14468 29.5267C7.83998 29.2233 7.66808 28.8114 7.66667 28.3813V15.048C7.66667 14.7627 7.74267 14.4827 7.884 14.24L11.5 7.95067V3.61867C11.5 2.72667 12.2293 2 13.1253 2H16C18.4813 2 20.5 4.008 20.5 6.476V11.524H27.5C29.9813 11.524 32 13.532 32 16V19.8093C32 20.0387 31.952 20.2613 31.856 20.4707L28.7827 27.3427C28.4275 28.1352 27.8505 28.8078 27.1212 29.2794C26.392 29.751 25.5418 30.0013 24.6733 30ZM13.1253 3.33333C13.0488 3.33262 12.9751 3.36224 12.9204 3.41572C12.8657 3.46919 12.8344 3.54216 12.8333 3.61867V8.12667C12.8338 8.24315 12.8034 8.35768 12.7453 8.45867L9.03867 14.9067C9.01334 14.9489 9.00041 14.9974 9.00133 15.0467V28.38C9.00133 28.5373 9.132 28.6653 9.29333 28.6653H24.6747C25.9267 28.6653 27.0627 27.932 27.5667 26.7987L30.6427 19.9227L30.6453 19.916C30.6592 19.8821 30.6664 19.8459 30.6667 19.8093V16C30.6667 14.2667 29.2467 12.8573 27.5 12.8573H19.8333C19.6565 12.8573 19.487 12.7871 19.3619 12.6621C19.2369 12.537 19.1667 12.3675 19.1667 12.1907V6.476C19.1667 4.74267 17.7467 3.33333 16 3.33333H13.1253ZM6.416 30H1.62533C1.19531 30.0004 0.782707 29.8301 0.478012 29.5267C0.173318 29.2233 0.00141207 28.8114 0 28.3813L0 15.048C0 14.156 0.729333 13.4293 1.62533 13.4293H6.41733C6.59414 13.4293 6.76371 13.4996 6.88874 13.6246C7.01376 13.7496 7.084 13.9192 7.084 14.096V29.3333C7.08365 29.5103 7.01311 29.6798 6.88788 29.8048C6.76264 29.9298 6.59293 30 6.416 30ZM1.62533 14.7613C1.58734 14.761 1.54964 14.7681 1.51441 14.7823C1.47917 14.7965 1.44707 14.8176 1.41996 14.8442C1.39284 14.8708 1.37124 14.9025 1.35637 14.9375C1.34151 14.9724 1.33368 15.01 1.33333 15.048V28.3813C1.33333 28.5387 1.464 28.6667 1.62533 28.6667H5.75067V14.7613H1.62533Z" fill="#0A9695"/>
</g>
<defs>
<clipPath id="clip0_141_407">
<rect width="32" height="32" fill="white"/>
</clipPath>
</defs>
</svg>
