<svg width="32" height="32" viewBox="0 0 32 32" fill="none" xmlns="http://www.w3.org/2000/svg">
<g clip-path="url(#clip0_141_385)">
<path d="M31.3333 12H24.6667C24.4899 12 24.3203 11.9298 24.1953 11.8047C24.0702 11.6797 24 11.5101 24 11.3333C24 11.1565 24.0702 10.987 24.1953 10.8619C24.3203 10.7369 24.4899 10.6667 24.6667 10.6667H30.6667V4.66667C30.6667 4.48986 30.7369 4.32029 30.8619 4.19526C30.987 4.07024 31.1565 4 31.3333 4C31.5101 4 31.6797 4.07024 31.8047 4.19526C31.9298 4.32029 32 4.48986 32 4.66667V11.3333C32 11.5101 31.9298 11.6797 31.8047 11.8047C31.6797 11.9298 31.5101 12 31.3333 12ZM0.666667 28C0.489856 28 0.320286 27.9298 0.195262 27.8047C0.0702379 27.6797 0 27.5101 0 27.3333V20.6667C0 20.4899 0.0702379 20.3203 0.195262 20.1953C0.320286 20.0702 0.489856 20 0.666667 20H7.33333C7.51014 20 7.67971 20.0702 7.80474 20.1953C7.92976 20.3203 8 20.4899 8 20.6667C8 20.8435 7.92976 21.013 7.80474 21.1381C7.67971 21.2631 7.51014 21.3333 7.33333 21.3333H1.33333V27.3333C1.33333 27.5101 1.2631 27.6797 1.13807 27.8047C1.01305 27.9298 0.843478 28 0.666667 28Z" fill="#0A9695"/>
<path d="M0.800934 14.6667C0.70606 14.6665 0.612311 14.6461 0.525904 14.6069C0.439496 14.5678 0.362406 14.5107 0.299743 14.4394C0.23708 14.3682 0.190278 14.2844 0.162439 14.1937C0.1346 14.103 0.126361 14.0075 0.138268 13.9133C1.16493 5.98133 7.9836 0 15.9996 0C23.1943 0 29.9103 4.68133 31.9689 11.1307C32.0225 11.2992 32.007 11.482 31.9257 11.6391C31.8854 11.7168 31.8303 11.7859 31.7634 11.8423C31.6964 11.8988 31.619 11.9415 31.5356 11.968C31.3671 12.0216 31.1842 12.006 31.0272 11.9248C30.8702 11.8435 30.7518 11.7032 30.6983 11.5347C28.8116 5.624 22.6303 1.33333 15.9996 1.33333C8.6516 1.33333 2.40227 6.816 1.46093 14.0853C1.44022 14.2458 1.36184 14.3933 1.2404 14.5003C1.11896 14.6072 0.962762 14.6664 0.800934 14.6667ZM15.9996 32C8.79027 32 2.07427 27.3187 0.0302675 20.868C-0.0160689 20.7015 0.00406642 20.5235 0.0864272 20.3716C0.168788 20.2196 0.306937 20.1056 0.471741 20.0536C0.636545 20.0015 0.815123 20.0155 0.969817 20.0926C1.12451 20.1696 1.24323 20.3038 1.30093 20.4667C3.17427 26.376 9.3556 30.6667 15.9996 30.6667C23.3476 30.6667 29.5969 25.184 30.5383 17.9147C30.5611 17.7391 30.6527 17.5798 30.793 17.4718C30.9333 17.3637 31.1107 17.3159 31.2863 17.3387C31.4618 17.3615 31.6212 17.4531 31.7292 17.5934C31.8372 17.7337 31.8851 17.9111 31.8623 18.0867C30.8343 26.0187 24.0156 32 15.9996 32Z" fill="#0A9695"/>
<path d="M14.098 26.6671C14.0029 26.6674 13.9088 26.6473 13.8222 26.6082C13.7355 26.5691 13.6582 26.5118 13.5956 26.4403C13.5329 26.3688 13.4863 26.2847 13.4589 26.1936C13.4315 26.1026 13.4239 26.0067 13.4367 25.9125L14.574 17.3338H10.0007C9.87684 17.3338 9.75548 17.2993 9.65016 17.2342C9.54485 17.1691 9.45974 17.076 9.40437 16.9653C9.349 16.8545 9.32556 16.7306 9.33668 16.6073C9.3478 16.484 9.39303 16.3662 9.46732 16.2671L17.4673 5.60047C17.5567 5.48044 17.6839 5.39399 17.8284 5.35502C17.9729 5.31606 18.1263 5.32685 18.2639 5.38565C18.4015 5.44446 18.5154 5.54786 18.5871 5.67921C18.6588 5.81057 18.6843 5.96224 18.6593 6.1098L17.454 13.3338H22.0007C22.121 13.3337 22.2392 13.3662 22.3426 13.4279C22.446 13.4895 22.5308 13.578 22.588 13.684C22.6451 13.79 22.6725 13.9094 22.6672 14.0297C22.662 14.15 22.6242 14.2666 22.558 14.3671L14.6553 26.3671C14.5943 26.4592 14.5115 26.5347 14.4143 26.587C14.317 26.6394 14.2084 26.6669 14.098 26.6671ZM11.334 16.0005H15.334C15.4289 16.0004 15.5227 16.0206 15.6091 16.0598C15.6956 16.0989 15.7727 16.156 15.8353 16.2273C15.8979 16.2986 15.9446 16.3825 15.9722 16.4733C15.9998 16.5641 16.0077 16.6597 15.9953 16.7538L15.1407 23.2045L20.7633 14.6671H16.6673C16.5705 14.6671 16.4749 14.646 16.3871 14.6053C16.2994 14.5646 16.2215 14.5052 16.1589 14.4314C16.0964 14.3575 16.0507 14.271 16.0249 14.1777C15.9992 14.0844 15.9941 13.9866 16.01 13.8911L16.894 8.58714L11.334 16.0005Z" fill="#0A9695"/>
</g>
<defs>
<clipPath id="clip0_141_385">
<rect width="32" height="32" fill="white"/>
</clipPath>
</defs>
</svg>
