<svg width="32" height="32" viewBox="0 0 32 32" fill="none" xmlns="http://www.w3.org/2000/svg">
<rect width="32" height="32" rx="16" fill="#0A9695"/>
<path d="M24.48 11.9204C23.92 12.1604 23.2801 12.3204 22.6401 12.4004C23.2801 12.0004 23.84 11.3604 24.08 10.6404C23.44 11.0404 22.8 11.2804 22 11.4404C21.44 10.8004 20.56 10.4004 19.68 10.4004C17.92 10.4004 16.48 11.8404 16.48 13.6004C16.48 13.8404 16.48 14.0804 16.56 14.3204C13.92 14.1604 11.52 12.8804 9.92004 10.9604C9.68004 11.4404 9.52004 12.0004 9.52004 12.5604C9.52004 13.6804 10.08 14.6404 10.96 15.2004C10.4 15.2004 9.92004 15.0404 9.52004 14.8004C9.52004 16.3204 10.64 17.6804 12.08 17.9204C11.84 18.0004 11.52 18.0004 11.2 18.0004C10.96 18.0004 10.8 18.0004 10.56 17.9204C10.96 19.2004 12.16 20.1604 13.6 20.1604C12.48 21.0404 11.12 21.5204 9.60005 21.5204C9.36005 21.5204 9.12005 21.5204 8.80005 21.4404C10.24 22.3204 11.92 22.8804 13.76 22.8804C19.68 22.8804 22.88 18.0004 22.88 13.7604V13.3604C23.52 13.1204 24.08 12.5604 24.48 11.9204Z" fill="white"/>
</svg>
