<svg width="32" height="32" viewBox="0 0 32 32" fill="none" xmlns="http://www.w3.org/2000/svg">
<rect width="32" height="32" rx="16" fill="#0A9695"/>
<path d="M21.0031 7.63595C17.9539 7.05364 14.7874 7.05364 11.7382 7.63595C10.3895 7.9271 8.68901 9.55757 8.39581 10.8386C7.86806 13.3426 7.86806 15.9047 8.39581 18.4086C8.74764 19.6897 10.4482 21.3202 11.7382 21.6113C11.7969 21.6113 11.8555 21.6696 11.8555 21.7278V25.3963C11.8555 25.571 12.0901 25.6875 12.2073 25.5128L13.9665 23.7077C13.9665 23.7077 15.3738 22.2519 15.6084 22.019C15.6084 22.019 15.667 21.9607 15.7257 21.9607C17.4848 22.019 19.3026 21.8443 21.0618 21.5531C22.4105 21.262 24.111 19.6315 24.4042 18.3504C24.9319 15.8465 24.9319 13.2843 24.4042 10.7804C24.0524 9.55757 22.3518 7.9271 21.0031 7.63595ZM21.0618 18.5833C20.7686 19.1656 20.4168 19.6315 19.8304 19.9226C19.6545 19.9809 19.4785 20.0391 19.3026 20.0973C19.0681 20.0391 18.8921 19.9809 18.7162 19.9226C16.8398 19.1656 15.0806 18.1175 13.6733 16.6035C12.911 15.73 12.266 14.7401 11.7382 13.692C11.5037 13.1679 11.2691 12.702 11.0932 12.178C10.9173 11.7121 11.2105 11.2463 11.5037 10.8969C11.7969 10.5475 12.1487 10.3146 12.5592 10.1399C12.8524 9.96518 13.1456 10.0816 13.3801 10.3146C13.8492 10.8969 14.3183 11.4792 14.6702 12.1197C14.9047 12.5273 14.8461 12.9932 14.4356 13.2843C14.3183 13.3426 14.2597 13.4008 14.1424 13.5173C14.0838 13.5755 13.9665 13.6337 13.9079 13.7502C13.7906 13.9249 13.7906 14.0996 13.8492 14.2743C14.3183 15.6136 15.1979 16.6617 16.5466 17.244C16.7811 17.3605 16.9571 17.4187 17.2503 17.4187C17.6607 17.3605 17.8366 16.8946 18.1298 16.6617C18.423 16.4288 18.7749 16.4288 19.1267 16.6035C19.4199 16.7782 19.7131 17.0111 20.0649 17.244C20.3581 17.477 20.6513 17.6516 20.9445 17.8846C21.1204 18.001 21.1791 18.2922 21.0618 18.5833ZM18.599 14.216C18.4817 14.216 18.5403 14.216 18.599 14.216C18.3644 14.216 18.3058 14.0996 18.2471 13.9249C18.2471 13.8084 18.2471 13.6337 18.1885 13.5173C18.1298 13.2843 18.0126 13.0514 17.778 12.8767C17.6607 12.8185 17.5435 12.7603 17.4262 12.702C17.2503 12.6438 17.133 12.6438 16.9571 12.6438C16.7812 12.5856 16.7225 12.4691 16.7225 12.2944C16.7225 12.178 16.8984 12.0615 17.0157 12.0615C17.9539 12.1197 18.6576 12.6438 18.7749 13.7502C18.7749 13.8084 18.7749 13.9249 18.7749 13.9831C18.7749 14.0996 18.7162 14.216 18.599 14.216ZM18.0126 11.6539C17.7194 11.5374 17.4262 11.421 17.0743 11.3627C16.9571 11.3627 16.7812 11.3045 16.6639 11.3045C16.488 11.3045 16.3707 11.188 16.4293 11.0133C16.4293 10.8386 16.5466 10.7222 16.7225 10.7804C17.3089 10.8386 17.8366 10.9551 18.3644 11.188C19.4199 11.7121 20.0063 12.5856 20.1822 13.7502C20.1822 13.8084 20.1822 13.8666 20.1822 13.9249C20.1822 14.0413 20.1822 14.1578 20.1822 14.3325C20.1822 14.3907 20.1822 14.449 20.1822 14.5072C20.1236 14.7401 19.7131 14.7983 19.6544 14.5072C19.6544 14.449 19.5958 14.3325 19.5958 14.2743C19.5958 13.7502 19.4785 13.2261 19.244 12.7603C18.8921 12.2362 18.4817 11.8868 18.0126 11.6539ZM21.1791 15.1477C21.0031 15.1477 20.8859 14.973 20.8859 14.7983C20.8859 14.449 20.8272 14.0996 20.7686 13.7502C20.534 11.8868 19.0094 10.3728 17.1916 10.0816C16.8984 10.0234 16.6052 10.0234 16.3707 9.96518C16.1948 9.96518 15.9602 9.96518 15.9016 9.73226C15.8429 9.55757 16.0188 9.38287 16.1948 9.38287C16.2534 9.38287 16.312 9.38287 16.312 9.38287C16.4293 9.38287 18.7162 9.4411 16.312 9.38287C18.7749 9.4411 20.8272 11.0716 21.2377 13.5173C21.2963 13.9249 21.355 14.3325 21.355 14.7983C21.4723 14.973 21.355 15.1477 21.1791 15.1477Z" fill="white"/>
</svg>
