<svg width="32" height="32" viewBox="0 0 32 32" fill="none" xmlns="http://www.w3.org/2000/svg">
<rect width="32" height="32" rx="16" fill="#0A9695"/>
<path d="M22.3415 9.64922C20.761 8.07422 18.6537 7.19922 16.4293 7.19922C11.8049 7.19922 8.05854 10.9326 8.05854 15.5409C8.05854 16.9992 8.46829 18.4576 9.17073 19.6826L8 23.9992L12.4488 22.8326C13.6781 23.4742 15.0244 23.8242 16.4293 23.8242C21.0537 23.8242 24.8 20.0909 24.8 15.4826C24.7415 13.3242 23.9219 11.2242 22.3415 9.64922ZM20.4683 18.5159C20.2927 18.9826 19.4732 19.4492 19.0634 19.5076C18.7122 19.5659 18.2439 19.5659 17.7756 19.4492C17.4829 19.3326 17.0732 19.2159 16.6049 18.9826C14.4976 18.1076 13.1512 16.0076 13.0341 15.8326C12.9171 15.7159 12.1561 14.7242 12.1561 13.6742C12.1561 12.6242 12.6829 12.1576 12.8585 11.9242C13.0341 11.6909 13.2683 11.6909 13.4439 11.6909C13.561 11.6909 13.7366 11.6909 13.8537 11.6909C13.9707 11.6909 14.1463 11.6326 14.322 12.0409C14.4976 12.4492 14.9073 13.4992 14.9659 13.5576C15.0244 13.6742 15.0244 13.7909 14.9659 13.9076C14.9073 14.0242 14.8488 14.1409 14.7317 14.2576C14.6146 14.3742 14.4976 14.5492 14.439 14.6076C14.3219 14.7242 14.2049 14.8409 14.322 15.0159C14.439 15.2492 14.8488 15.8909 15.4927 16.4742C16.3122 17.1742 16.9561 17.4076 17.1902 17.5242C17.4244 17.6409 17.5415 17.5826 17.6585 17.4659C17.7756 17.3492 18.1854 16.8826 18.3024 16.6492C18.4195 16.4159 18.5951 16.4742 18.7707 16.5326C18.9463 16.5909 20 17.1159 20.1756 17.2326C20.4098 17.3492 20.5268 17.4076 20.5854 17.4659C20.6439 17.6409 20.6439 18.0492 20.4683 18.5159Z" fill="white"/>
</svg>
