<svg width="14" height="15" viewBox="0 0 14 15" fill="none" xmlns="http://www.w3.org/2000/svg">
<path d="M9.45578 5.1664H4.54412C4.35021 5.16612 4.16019 5.22076 3.99604 5.32399C3.8319 5.42723 3.70035 5.57484 3.61662 5.74973C3.5186 5.95725 3.48084 6.18813 3.50766 6.41606C3.53447 6.64399 3.62478 6.8598 3.76828 7.0389L6.22412 10.0139C6.32049 10.1251 6.43965 10.2143 6.5735 10.2754C6.70736 10.3365 6.8528 10.3682 6.99995 10.3682C7.1471 10.3682 7.29254 10.3365 7.42639 10.2754C7.56025 10.2143 7.67941 10.1251 7.77578 10.0139L10.2316 7.0389C10.3751 6.8598 10.4654 6.64399 10.4922 6.41606C10.5191 6.18813 10.4813 5.95725 10.3833 5.74973C10.2995 5.57484 10.168 5.42723 10.0039 5.32399C9.83971 5.22076 9.64969 5.16612 9.45578 5.1664Z" fill="#0A9695"/>
</svg>
