<svg width="14" height="14" viewBox="0 0 14 14" fill="none" xmlns="http://www.w3.org/2000/svg">
<path d="M4.66738 4.54446L4.66738 9.45613C4.6671 9.65004 4.72174 9.84006 4.82497 10.0042C4.9282 10.1683 5.07581 10.2999 5.25071 10.3836C5.45823 10.4816 5.68911 10.5194 5.91703 10.4926C6.14496 10.4658 6.36078 10.3755 6.53988 10.232L9.51488 7.77613C9.62608 7.67975 9.71526 7.5606 9.77638 7.42674C9.83751 7.29288 9.86914 7.14745 9.86914 7.0003C9.86914 6.85314 9.83751 6.70771 9.77638 6.57385C9.71526 6.43999 9.62608 6.32084 9.51488 6.22446L6.53988 3.76863C6.36078 3.62512 6.14496 3.53482 5.91703 3.508C5.6891 3.48119 5.45823 3.51894 5.25071 3.61696C5.07581 3.7007 4.9282 3.83225 4.82497 3.99639C4.72174 4.16053 4.6671 4.35056 4.66738 4.54446Z" fill="#1E1F21"/>
</svg>
