<svg width="32" height="32" viewBox="0 0 32 32" fill="none" xmlns="http://www.w3.org/2000/svg">
<g clip-path="url(#clip0_141_427)">
<path fill-rule="evenodd" clip-rule="evenodd" d="M7.4871 0.907969C7.54964 0.832887 7.62792 0.77247 7.71639 0.730996C7.80487 0.689522 7.90138 0.668005 7.9991 0.667969H23.9991C24.0968 0.668005 24.1933 0.689522 24.2818 0.730996C24.3703 0.77247 24.4486 0.832887 24.5111 0.907969L31.1778 8.90797C31.2588 9.0053 31.3105 9.12372 31.3267 9.24936C31.3429 9.37499 31.323 9.50264 31.2693 9.61736C31.2155 9.73209 31.1302 9.82913 31.0234 9.89712C30.9165 9.96512 30.7924 10.0013 30.6658 10.0013H1.33243C1.20576 10.0013 1.08172 9.96512 0.974836 9.89712C0.867955 9.82913 0.78266 9.73209 0.728937 9.61736C0.675215 9.50264 0.655289 9.37499 0.671493 9.24936C0.687697 9.12372 0.73936 9.0053 0.820433 8.90797L7.4871 0.907969ZM8.3111 2.0013L2.75643 8.66797H29.2431L23.6871 2.0013H8.3111Z" fill="#0A9695"/>
<path fill-rule="evenodd" clip-rule="evenodd" d="M7.9987 0.667207C8.17551 0.667207 8.34508 0.737445 8.4701 0.862469C8.59513 0.987494 8.66537 1.15706 8.66537 1.33387V7.72454L15.5267 0.861874C15.5886 0.79979 15.6622 0.750533 15.7432 0.716924C15.8242 0.683315 15.911 0.666016 15.9987 0.666016C16.0864 0.666016 16.1732 0.683315 16.2542 0.716924C16.3352 0.750533 16.4088 0.79979 16.4707 0.861874L23.332 7.72454V1.33387C23.332 1.15706 23.4023 0.987494 23.5273 0.862469C23.6523 0.737445 23.8219 0.667207 23.9987 0.667207C24.1755 0.667207 24.3451 0.737445 24.4701 0.862469C24.5951 0.987494 24.6654 1.15706 24.6654 1.33387V9.33387C24.6656 9.4659 24.6266 9.59503 24.5534 9.70488C24.4802 9.81473 24.3759 9.90036 24.254 9.95092C24.132 10.0015 23.9978 10.0147 23.8683 9.98886C23.7388 9.96304 23.6199 9.89935 23.5267 9.80587L15.9987 2.27654L8.4707 9.80587C8.37746 9.89935 8.25856 9.96304 8.12909 9.98886C7.99961 10.0147 7.86538 10.0015 7.74341 9.95092C7.62145 9.90036 7.51724 9.81473 7.44401 9.70488C7.37077 9.59503 7.3318 9.4659 7.33203 9.33387V1.33387C7.33203 1.15706 7.40227 0.987494 7.52729 0.862469C7.65232 0.737445 7.82189 0.667207 7.9987 0.667207Z" fill="#0A9695"/>
<path fill-rule="evenodd" clip-rule="evenodd" d="M0.741603 9.02397C0.798247 8.91642 0.883218 8.8264 0.987326 8.76366C1.09143 8.70091 1.21071 8.66782 1.33227 8.66797H30.6656C30.787 8.66802 30.9061 8.70122 31.01 8.764C31.114 8.82678 31.1988 8.91675 31.2553 9.0242C31.3119 9.13165 31.338 9.2525 31.3309 9.3737C31.3237 9.49491 31.2837 9.61187 31.2149 9.71197L16.5483 31.0453C16.487 31.1344 16.405 31.2073 16.3093 31.2576C16.2136 31.3079 16.1071 31.3342 15.9989 31.3342C15.8908 31.3342 15.7843 31.3079 15.6886 31.2576C15.5929 31.2073 15.5109 31.1344 15.4496 31.0453L0.782936 9.71197C0.714229 9.61181 0.674189 9.49479 0.66714 9.37354C0.66009 9.25229 0.686299 9.13141 0.742936 9.02397H0.741603ZM2.60027 10.0013L15.9989 29.4906L29.3989 10.0013H2.60027Z" fill="#0A9695"/>
<path fill-rule="evenodd" clip-rule="evenodd" d="M7.76359 8.71064C7.92909 8.6484 8.11253 8.65445 8.27356 8.72747C8.35329 8.76362 8.42513 8.81512 8.48496 8.87904C8.54479 8.94295 8.59144 9.01802 8.62226 9.09997L15.9983 28.7693L23.3743 9.09997C23.4396 8.93896 23.5651 8.8098 23.7243 8.74C23.8834 8.67021 24.0634 8.66529 24.2261 8.7263C24.3888 8.78731 24.5213 8.90942 24.5953 9.06663C24.6692 9.22384 24.6789 9.40372 24.6223 9.56797L16.6223 30.9013C16.5745 31.0282 16.4892 31.1376 16.3777 31.2148C16.2662 31.292 16.1339 31.3333 15.9983 31.3333C15.8627 31.3333 15.7303 31.292 15.6188 31.2148C15.5073 31.1376 15.422 31.0282 15.3743 30.9013L7.37426 9.56797C7.31244 9.40264 7.3187 9.21953 7.39169 9.05882C7.46468 8.8981 7.59842 8.77288 7.76359 8.71064Z" fill="#0A9695"/>
</g>
<defs>
<clipPath id="clip0_141_427">
<rect width="32" height="32" fill="white"/>
</clipPath>
</defs>
</svg>
