<svg width="25" height="26" viewBox="0 0 25 26" fill="none" xmlns="http://www.w3.org/2000/svg">
<rect y="0.5" width="25" height="25" rx="12.5" fill="#0A9695"/>
<path d="M19.1424 9.3307L10.6816 17.7915C10.6079 17.8655 10.5203 17.9242 10.4239 17.9642C10.3275 18.0042 10.2241 18.0248 10.1197 18.0248C10.0153 18.0248 9.91196 18.0042 9.81555 17.9642C9.71913 17.9242 9.63157 17.8655 9.55788 17.7915L5.85626 14.0899C5.78248 14.0161 5.72395 13.9285 5.68402 13.8321C5.64409 13.7357 5.62354 13.6324 5.62354 13.5281C5.62354 13.4237 5.64409 13.3204 5.68402 13.224C5.72395 13.1276 5.78248 13.04 5.85626 12.9662C5.93005 12.8924 6.01764 12.8339 6.11404 12.794C6.21044 12.754 6.31377 12.7335 6.41811 12.7335C6.52246 12.7335 6.62578 12.754 6.72219 12.794C6.81859 12.8339 6.90618 12.8924 6.97997 12.9662L10.1204 16.1066L18.02 8.20831C18.169 8.0593 18.3711 7.97559 18.5819 7.97559C18.7926 7.97559 18.9947 8.0593 19.1437 8.20831C19.2927 8.35733 19.3765 8.55943 19.3765 8.77017C19.3765 8.9809 19.2927 9.183 19.1437 9.33202L19.1424 9.3307Z" fill="white"/>
</svg>
